<svg xmlns="http://www.w3.org/2000/svg" style="box-sizing: border-box; width: 100%; max-width: 500px; margin: 0 auto;" role="figure" viewBox="0 0 400 280"><g class="elm-plot__grouped"><g class="elm-plot__group"><path stroke="#95c9ec" fill="#95c9ec" d="M53.125 257 L53.125 40 L99.375 40 L99.375 257"></path></g><g class="elm-plot__group"><path stroke="#95c9ec" fill="#95c9ec" d="M145.625 257 L145.625 55.19 L191.875 55.19 L191.875 257"></path></g><g class="elm-plot__group"><path stroke="#95c9ec" fill="#95c9ec" d="M238.125 257 L238.125 89.91 L284.375 89.91 L284.375 257"></path></g><g class="elm-plot__group"><path stroke="#1293D8" fill="#1293D8" d="M330.625 257 L330.625 194.07 L376.875 194.07 L376.875 257"></path></g></g><path stroke="#a3a3a3" d="M30 257 L30 257 L400 257"></path><g class="elm-plot__x-ticks"><line class="elm-plot__tick" stroke="#a3a3a3" x1="76.25" x2="76.25" y1="257" y2="262"></line><line class="elm-plot__tick" stroke="#a3a3a3" x1="168.75" x2="168.75" y1="257" y2="262"></line><line class="elm-plot__tick" stroke="#a3a3a3" x1="261.25" x2="261.25" y1="257" y2="262"></line><line class="elm-plot__tick" stroke="#a3a3a3" x1="353.75" x2="353.75" y1="257" y2="262"></line></g><g><g transform="translate(76.25,277)" style="text-anchor: middle;font-size: 12px;"><text><tspan>Vue</tspan></text></g><g transform="translate(168.75,277)" style="text-anchor: middle;font-size: 12px;"><text><tspan>Angular 6</tspan></text></g><g transform="translate(261.25,277)" style="text-anchor: middle;font-size: 12px;"><text><tspan>React 16.4</tspan></text></g><g transform="translate(353.75,277)" style="text-anchor: middle;font-size: 12px;"><text><tspan>Elm 19.0</tspan></text></g></g><path stroke="#a3a3a3" d="M30 257 L30 257 L30 40"></path><g class="elm-plot__y-ticks"><line class="elm-plot__tick" stroke="#a3a3a3" x1="30" x2="25" y1="202.75" y2="202.75"></line><line class="elm-plot__tick" stroke="#a3a3a3" x1="30" x2="25" y1="148.5" y2="148.5"></line><line class="elm-plot__tick" stroke="#a3a3a3" x1="30" x2="25" y1="94.25" y2="94.25"></line><line class="elm-plot__tick" stroke="#a3a3a3" x1="30" x2="25" y1="40" y2="40"></line></g><g><g transform="translate(20,207.75)" style="text-anchor: end;font-size: 12px;"><text><tspan>25</tspan></text></g><g transform="translate(20,153.5)" style="text-anchor: end;font-size: 12px;"><text><tspan>50</tspan></text></g><g transform="translate(20,99.25)" style="text-anchor: end;font-size: 12px;"><text><tspan>75</tspan></text></g><g transform="translate(20,45)" style="text-anchor: end;font-size: 12px;"><text><tspan>100</tspan></text></g></g><g><g transform="translate(76.25,33)" style="text-anchor: middle;font-size: 12px;"><text><tspan>100</tspan></text></g><g transform="translate(168.75,48.19)" style="text-anchor: middle;font-size: 12px;"><text><tspan>93</tspan></text></g><g transform="translate(261.25,82.91)" style="text-anchor: middle;font-size: 12px;"><text><tspan>77</tspan></text></g><g transform="translate(353.75,187.07)" style="text-anchor: middle;font-size: 12px;"><text><tspan>29</tspan></text></g></g><g><g transform="translate( 20,25)" style="text-anchor: end; font-size: 12px;"><text><tspan>kb</tspan></text></g><g transform="translate( 200,20)" style="text-anchor: middle; font-size: 16px;"><text><tspan>RealWorld Asset Size</tspan></text></g><g transform="translate( 320,18)" style="text-anchor: middle; font-size: 12px; fill: grey;"><text><tspan>(uglify + gzip)</tspan></text></g></g></svg>